<svg width="700" height="776" viewBox="0 0 700 776" fill="none" xmlns="http://www.w3.org/2000/svg">
<g clip-path="url(#clip0_24049_3019)">
<path d="M2412.36 249.708C1751.53 123.394 1328.95 211.8 1039.95 330.472C762.385 444.443 464.571 682.222 195.873 602.599C92.2446 571.886 22.7406 507.507 -19.6173 457.79L-19.8024 415.554C20.5599 473.37 87.6586 548.628 191.194 583.174C467.677 675.425 767.117 398.386 1040.22 246.582C1323.15 89.3193 1776.73 -44.0895 2517.66 82.1496L2412.38 249.708H2412.36Z" fill="url(#paint0_radial_24049_3019)"/>
<path d="M2412.36 249.713C1751.52 123.4 1328.95 211.805 1039.95 330.478C762.385 444.449 464.571 682.228 195.872 602.604C92.2439 571.891 22.7399 507.513 -19.618 457.796L-19.433 500.033C24.9073 541.649 96.7506 595.236 200.551 622.017C461.28 689.298 757.931 490.643 1039.69 414.368C1335.07 334.398 1726.33 290.883 2307.08 417.271L2412.36 249.713Z" fill="url(#paint1_radial_24049_3019)"/>
<path d="M2307.08 417.264C1726.32 290.876 1335.07 334.391 1039.69 414.362C757.93 490.636 461.279 689.304 200.55 622.011C96.7498 595.23 24.9065 541.643 -19.4338 500.039L-19.2488 542.275C27.0872 575.78 101.204 618.686 205.228 641.448C457.83 696.71 753.714 537.078 1039.42 498.265C1341.44 457.244 1701.14 458.36 2201.8 584.835L2307.08 417.277V417.264Z" fill="url(#paint2_radial_24049_3019)"/>
<path d="M2201.79 584.826C1701.12 458.363 1341.41 457.235 1039.41 498.256C753.7 537.069 457.816 696.701 205.214 641.439C101.203 618.69 27.0733 575.783 -19.2495 542.279L-19.0645 584.516C29.2539 609.92 105.617 642.27 209.906 660.864C454.26 704.441 749.629 579.777 1039.16 582.146C1347.91 584.677 1675.94 625.834 2096.52 752.371L2201.8 584.813L2201.79 584.826Z" fill="url(#paint3_radial_24049_3019)"/>
<path d="M2096.51 752.385C1675.93 625.848 1347.91 584.691 1039.15 582.16C749.622 579.791 454.253 704.455 209.898 660.878C105.609 642.284 29.2594 609.934 -19.0723 584.53L-18.8872 626.766C31.4268 644.07 109.971 666.001 214.577 680.304C450.592 712.555 745.512 630.86 1038.88 666.051C1354.4 703.897 1650.74 793.332 1991.23 919.943L2096.51 752.385Z" fill="url(#paint4_radial_24049_3019)"/>
<path d="M1991.23 919.939C1650.74 793.327 1354.39 703.892 1038.88 666.046C745.524 630.855 450.591 712.55 214.576 680.299C109.983 666.009 31.4261 644.066 -18.8879 626.762L-18.7029 668.999C33.5936 678.203 114.331 689.9 219.255 699.712C446.904 721.01 741.281 678.165 1038.62 749.937C1360.72 827.675 1625.55 960.811 1885.95 1087.5L1991.23 919.939Z" fill="url(#paint5_radial_24049_3019)"/>
<path d="M1885.94 1087.51C1625.54 960.82 1360.71 827.684 1038.6 749.946C741.267 678.187 446.889 721.019 219.24 699.72C114.316 689.909 33.5918 678.199 -18.7179 669.007L-18.5329 711.244C35.7593 712.348 118.678 713.998 223.918 719.146C443.215 729.863 736.826 725.67 1038.34 833.836C1366.83 951.678 1600.35 1128.3 1780.66 1255.05L1885.94 1087.49V1087.51Z" fill="url(#paint6_radial_24049_3019)"/>
<path d="M1780.65 1255.05C1600.33 1128.29 1366.81 951.666 1038.34 833.837C736.825 725.671 443.214 729.864 223.917 719.146C118.69 713.998 35.7585 712.349 -18.5337 711.245L-18.3487 753.481C150.502 732.468 579.222 701.023 1038.06 917.727C1372.68 1075.76 1575.14 1295.77 1675.37 1422.61L1780.65 1255.05Z" fill="url(#paint7_radial_24049_3019)"/>
</g>
<g clip-path="url(#clip1_24049_3019)">
<path d="M2412.34 249.806C1751.39 123.457 1328.74 211.887 1039.7 330.593C762.08 444.596 464.215 682.442 195.469 602.796C91.8229 572.074 22.3068 507.678 -20.0585 457.947L-20.2435 415.698C20.1258 473.531 87.2361 548.81 190.79 583.365C467.321 675.643 766.813 398.526 1039.96 246.679C1322.94 89.3725 1776.6 -44.0737 2517.66 82.2008L2412.36 249.806H2412.34Z" stroke="url(#paint8_radial_24049_3019)" stroke-miterlimit="10" stroke-dasharray="10 10"/>
<path d="M2412.34 249.812C1751.39 123.463 1328.74 211.894 1039.69 330.599C762.078 444.603 464.212 682.448 195.467 602.802C91.8205 572.081 22.3044 507.684 -20.0609 457.953L-19.8758 500.202C24.4722 541.83 96.328 595.432 200.146 622.221C460.921 689.521 757.623 490.809 1039.43 414.514C1334.86 334.52 1726.2 290.994 2307.04 417.417L2412.34 249.812Z" stroke="url(#paint9_radial_24049_3019)" stroke-miterlimit="10" stroke-dasharray="10 10"/>
<path d="M2201.73 585.018C1700.98 458.52 1341.21 457.391 1039.15 498.424C753.395 537.248 457.459 696.924 204.814 641.647C100.785 618.891 26.642 575.973 -19.6888 542.459L-19.5038 584.708C28.8231 610.119 105.2 642.479 209.507 661.078C453.904 704.667 749.324 579.968 1038.9 582.338C1347.71 584.869 1675.8 626.038 2096.45 752.611L2201.75 585.005L2201.73 585.018Z" stroke="url(#paint11_radial_24049_3019)" stroke-miterlimit="10" stroke-dasharray="10 10"/>
<path d="M2096.44 752.625C1675.78 626.053 1347.7 584.884 1038.89 582.352C749.311 579.982 453.891 704.681 209.494 661.092C105.186 642.493 28.8232 610.134 -19.5169 584.722L-19.3318 626.971C30.991 644.28 109.549 666.217 214.173 680.523C450.229 712.784 745.2 631.066 1038.62 666.267C1354.19 704.123 1650.59 793.583 1991.14 920.23L2096.44 752.625Z" stroke="url(#paint12_radial_24049_3019)" stroke-miterlimit="10" stroke-dasharray="10 10"/>
<path d="M1991.14 920.225C1650.59 793.579 1354.19 704.118 1038.63 666.262C745.216 631.061 450.231 712.779 214.175 680.518C109.564 666.225 30.9933 644.275 -19.3295 626.966L-19.1445 669.215C33.1612 678.422 113.913 690.122 218.855 699.937C446.543 721.241 740.972 678.384 1038.36 750.176C1360.52 827.936 1625.4 961.109 1885.84 1087.83L1991.14 920.225Z" stroke="url(#paint13_radial_24049_3019)" stroke-miterlimit="10" stroke-dasharray="10 10"/>
<path d="M1885.83 1087.84C1625.38 961.118 1360.51 827.944 1038.35 750.185C740.959 678.405 446.53 721.249 218.841 699.945C113.9 690.131 33.1611 678.418 -19.1577 669.224L-18.9726 711.472C35.329 712.576 118.262 714.227 223.521 719.376C442.855 730.096 736.518 725.902 1038.08 834.099C1366.63 951.973 1600.19 1128.65 1780.53 1255.43L1885.83 1087.83V1087.84Z" stroke="url(#paint14_radial_24049_3019)" stroke-miterlimit="10" stroke-dasharray="10 10"/>
<path d="M1780.53 1255.43C1600.17 1128.64 1366.62 951.961 1038.08 834.099C736.516 725.903 442.853 730.097 223.519 719.377C118.273 714.227 35.3267 712.577 -18.9749 711.473L-18.7898 753.721C150.09 732.703 578.885 701.249 1037.8 918.014C1372.48 1076.09 1574.98 1296.17 1675.23 1423.04L1780.53 1255.43Z" stroke="url(#paint15_radial_24049_3019)" stroke-miterlimit="10" stroke-dasharray="10 10"/>
</g>
<defs>
<radialGradient id="paint0_radial_24049_3019" cx="0" cy="0" r="1" gradientUnits="userSpaceOnUse" gradientTransform="translate(-448.021 424.083) rotate(-13.2326) scale(1753.4 346.618)">
<stop stop-color="#ECFBA9"/>
<stop offset="0.212311" stop-color="#D7FF25"/>
<stop offset="0.515912" stop-color="#FB9CE5"/>
<stop offset="0.884463" stop-color="#FB9CE5" stop-opacity="0"/>
</radialGradient>
<radialGradient id="paint1_radial_24049_3019" cx="0" cy="0" r="1" gradientUnits="userSpaceOnUse" gradientTransform="translate(-430.036 487.276) rotate(-10.6045) scale(1664.32 267.08)">
<stop stop-color="#ECFBA9"/>
<stop offset="0.212311" stop-color="#D7FF25"/>
<stop offset="0.515912" stop-color="#FB9CE5"/>
<stop offset="0.884463" stop-color="#FB9CE5" stop-opacity="0"/>
</radialGradient>
<radialGradient id="paint2_radial_24049_3019" cx="0" cy="0" r="1" gradientUnits="userSpaceOnUse" gradientTransform="translate(-412.054 548.419) rotate(-7.84815) scale(1579.75 189.578)">
<stop stop-color="#ECFBA9"/>
<stop offset="0.212311" stop-color="#D7FF25"/>
<stop offset="0.515912" stop-color="#FB9CE5"/>
<stop offset="0.884463" stop-color="#FB9CE5" stop-opacity="0"/>
</radialGradient>
<radialGradient id="paint3_radial_24049_3019" cx="0" cy="0" r="1" gradientUnits="userSpaceOnUse" gradientTransform="translate(-394.071 660.14) rotate(-7.25968) scale(1506.09 167.489)">
<stop stop-color="#ECFBA9"/>
<stop offset="0.212311" stop-color="#D7FF25"/>
<stop offset="0.515912" stop-color="#FB9CE5"/>
<stop offset="0.884463" stop-color="#FB9CE5" stop-opacity="0"/>
</radialGradient>
<radialGradient id="paint4_radial_24049_3019" cx="0" cy="0" r="1" gradientUnits="userSpaceOnUse" gradientTransform="translate(-376.096 807.927) rotate(-9.2258) scale(1441.72 202.409)">
<stop stop-color="#ECFBA9"/>
<stop offset="0.212311" stop-color="#D7FF25"/>
<stop offset="0.515912" stop-color="#FB9CE5"/>
<stop offset="0.884463" stop-color="#FB9CE5" stop-opacity="0"/>
</radialGradient>
<radialGradient id="paint5_radial_24049_3019" cx="0" cy="0" r="1" gradientUnits="userSpaceOnUse" gradientTransform="translate(-358.113 934.722) rotate(-13.1241) scale(1388.39 272.371)">
<stop stop-color="#ECFBA9"/>
<stop offset="0.212311" stop-color="#D7FF25"/>
<stop offset="0.515912" stop-color="#FB9CE5"/>
<stop offset="0.884463" stop-color="#FB9CE5" stop-opacity="0"/>
</radialGradient>
<radialGradient id="paint6_radial_24049_3019" cx="0" cy="0" r="1" gradientUnits="userSpaceOnUse" gradientTransform="translate(-340.145 1060.73) rotate(-17.3793) scale(1342.47 339.501)">
<stop stop-color="#ECFBA9"/>
<stop offset="0.212311" stop-color="#D7FF25"/>
<stop offset="0.515912" stop-color="#FB9CE5"/>
<stop offset="0.884463" stop-color="#FB9CE5" stop-opacity="0"/>
</radialGradient>
<radialGradient id="paint7_radial_24049_3019" cx="0" cy="0" r="1" gradientUnits="userSpaceOnUse" gradientTransform="translate(-322.163 1186.73) rotate(-21.9091) scale(1304.46 400.627)">
<stop stop-color="#ECFBA9"/>
<stop offset="0.212311" stop-color="#D7FF25"/>
<stop offset="0.515912" stop-color="#FB9CE5"/>
<stop offset="0.884463" stop-color="#FB9CE5" stop-opacity="0"/>
</radialGradient>
<radialGradient id="paint8_radial_24049_3019" cx="0" cy="0" r="1" gradientUnits="userSpaceOnUse" gradientTransform="translate(-3.23533 459.426) rotate(10.7015) scale(1443.84 847.485)">
<stop stop-color="#43045E"/>
<stop offset="0.406232" stop-color="#FB9CE5"/>
<stop offset="1" stop-color="#FB9CE5" stop-opacity="0"/>
</radialGradient>
<radialGradient id="paint9_radial_24049_3019" cx="0" cy="0" r="1" gradientUnits="userSpaceOnUse" gradientTransform="translate(-3.23533 459.426) rotate(10.7015) scale(1443.84 847.485)">
<stop stop-color="#43045E"/>
<stop offset="0.406232" stop-color="#FB9CE5"/>
<stop offset="1" stop-color="#FB9CE5" stop-opacity="0"/>
</radialGradient>
<radialGradient id="paint10_radial_24049_3019" cx="0" cy="0" r="1" gradientUnits="userSpaceOnUse" gradientTransform="translate(-3.23533 459.426) rotate(10.7015) scale(1443.84 847.485)">
<stop stop-color="#43045E"/>
<stop offset="0.406232" stop-color="#FB9CE5"/>
<stop offset="1" stop-color="#FB9CE5" stop-opacity="0"/>
</radialGradient>
<radialGradient id="paint11_radial_24049_3019" cx="0" cy="0" r="1" gradientUnits="userSpaceOnUse" gradientTransform="translate(-3.23533 459.426) rotate(10.7015) scale(1443.84 847.485)">
<stop stop-color="#43045E"/>
<stop offset="0.406232" stop-color="#FB9CE5"/>
<stop offset="1" stop-color="#FB9CE5" stop-opacity="0"/>
</radialGradient>
<radialGradient id="paint12_radial_24049_3019" cx="0" cy="0" r="1" gradientUnits="userSpaceOnUse" gradientTransform="translate(-3.23533 459.426) rotate(10.7015) scale(1443.84 847.485)">
<stop stop-color="#43045E"/>
<stop offset="0.406232" stop-color="#FB9CE5"/>
<stop offset="1" stop-color="#FB9CE5" stop-opacity="0"/>
</radialGradient>
<radialGradient id="paint13_radial_24049_3019" cx="0" cy="0" r="1" gradientUnits="userSpaceOnUse" gradientTransform="translate(-3.23533 459.426) rotate(10.7015) scale(1443.84 847.485)">
<stop stop-color="#43045E"/>
<stop offset="0.406232" stop-color="#FB9CE5"/>
<stop offset="1" stop-color="#FB9CE5" stop-opacity="0"/>
</radialGradient>
<radialGradient id="paint14_radial_24049_3019" cx="0" cy="0" r="1" gradientUnits="userSpaceOnUse" gradientTransform="translate(-3.23533 459.426) rotate(10.7015) scale(1443.84 847.485)">
<stop stop-color="#43045E"/>
<stop offset="0.406232" stop-color="#FB9CE5"/>
<stop offset="1" stop-color="#FB9CE5" stop-opacity="0"/>
</radialGradient>
<radialGradient id="paint15_radial_24049_3019" cx="0" cy="0" r="1" gradientUnits="userSpaceOnUse" gradientTransform="translate(-3.23533 459.426) rotate(10.7015) scale(1443.84 847.485)">
<stop stop-color="#43045E"/>
<stop offset="0.406232" stop-color="#FB9CE5"/>
<stop offset="1" stop-color="#FB9CE5" stop-opacity="0"/>
</radialGradient>
<clipPath id="clip0_24049_3019">
<rect width="700" height="776" rx="8" fill="white"/>
</clipPath>
<clipPath id="clip1_24049_3019">
<rect width="700" height="776" rx="8" fill="white"/>
</clipPath>
</defs>
</svg>
